<svg width="14" height="11" viewBox="0 0 14 11" fill="none" xmlns="http://www.w3.org/2000/svg">
<path d="M1 2.33333C1 1.97971 1.14048 1.64057 1.39052 1.39052C1.64057 1.14048 1.97971 1 2.33333 1H11.6667C12.0203 1 12.3594 1.14048 12.6095 1.39052C12.8595 1.64057 13 1.97971 13 2.33333M1 2.33333V9C1 9.35362 1.14048 9.69276 1.39052 9.94281C1.64057 10.1929 1.97971 10.3333 2.33333 10.3333H11.6667C12.0203 10.3333 12.3594 10.1929 12.6095 9.94281C12.8595 9.69276 13 9.35362 13 9V2.33333M1 2.33333L7 6.33333L13 2.33333" stroke="url(#paint0_linear_7_457)" stroke-width="1.3" stroke-linecap="round" stroke-linejoin="round"/>
<defs>
<linearGradient id="paint0_linear_7_457" x1="4.77586" y1="0.681818" x2="13.773" y2="5.86753" gradientUnits="userSpaceOnUse">
<stop stop-color="#0DA6C2"/>
<stop offset="1" stop-color="#0E39C6"/>
</linearGradient>
</defs>
</svg>
