<svg width="11" height="14" viewBox="0 0 11 14" fill="none" xmlns="http://www.w3.org/2000/svg">
<path d="M3 6.33333V3.66667C3 2.95942 3.28095 2.28115 3.78105 1.78105C4.28115 1.28095 4.95942 1 5.66667 1C6.37391 1 7.05219 1.28095 7.55229 1.78105C8.05238 2.28115 8.33333 2.95942 8.33333 3.66667V6.33333M1 7.66667C1 7.31304 1.14048 6.97391 1.39052 6.72386C1.64057 6.47381 1.97971 6.33333 2.33333 6.33333H9C9.35362 6.33333 9.69276 6.47381 9.94281 6.72386C10.1929 6.97391 10.3333 7.31304 10.3333 7.66667V11.6667C10.3333 12.0203 10.1929 12.3594 9.94281 12.6095C9.69276 12.8595 9.35362 13 9 13H2.33333C1.97971 13 1.64057 12.8595 1.39052 12.6095C1.14048 12.3594 1 12.0203 1 11.6667V7.66667ZM5 9.66667C5 9.84348 5.07024 10.013 5.19526 10.1381C5.32029 10.2631 5.48986 10.3333 5.66667 10.3333C5.84348 10.3333 6.01305 10.2631 6.13807 10.1381C6.2631 10.013 6.33333 9.84348 6.33333 9.66667C6.33333 9.48986 6.2631 9.32029 6.13807 9.19526C6.01305 9.07024 5.84348 9 5.66667 9C5.48986 9 5.32029 9.07024 5.19526 9.19526C5.07024 9.32029 5 9.48986 5 9.66667Z" stroke="url(#paint0_linear_35_3540)" stroke-width="1.3" stroke-linecap="round" stroke-linejoin="round"/>
<defs>
<linearGradient id="paint0_linear_35_3540" x1="3.93678" y1="0.590908" x2="12.2488" y2="3.48905" gradientUnits="userSpaceOnUse">
<stop stop-color="#0DA6C2"/>
<stop offset="1" stop-color="#0E39C6"/>
</linearGradient>
</defs>
</svg>
