<svg width="14" height="15" viewBox="0 0 14 15" fill="none" xmlns="http://www.w3.org/2000/svg">
<path d="M3.11198 12.066C3.27699 11.5168 3.61462 11.0355 4.07481 10.6933C4.535 10.3512 5.09321 10.1665 5.66665 10.1667H8.33331C8.90749 10.1665 9.46639 10.3516 9.9269 10.6945C10.3874 11.0374 10.725 11.5199 10.8893 12.07M1 7.5C1 8.28793 1.15519 9.06815 1.45672 9.7961C1.75825 10.5241 2.20021 11.1855 2.75736 11.7426C3.31451 12.2998 3.97595 12.7417 4.7039 13.0433C5.43185 13.3448 6.21207 13.5 7 13.5C7.78793 13.5 8.56815 13.3448 9.2961 13.0433C10.0241 12.7417 10.6855 12.2998 11.2426 11.7426C11.7998 11.1855 12.2417 10.5241 12.5433 9.7961C12.8448 9.06815 13 8.28793 13 7.5C13 6.71207 12.8448 5.93185 12.5433 5.2039C12.2417 4.47595 11.7998 3.81451 11.2426 3.25736C10.6855 2.70021 10.0241 2.25825 9.2961 1.95672C8.56815 1.65519 7.78793 1.5 7 1.5C6.21207 1.5 5.43185 1.65519 4.7039 1.95672C3.97595 2.25825 3.31451 2.70021 2.75736 3.25736C2.20021 3.81451 1.75825 4.47595 1.45672 5.2039C1.15519 5.93185 1 6.71207 1 7.5ZM5 6.16667C5 6.6971 5.21071 7.20581 5.58579 7.58088C5.96086 7.95595 6.46957 8.16667 7 8.16667C7.53043 8.16667 8.03914 7.95595 8.41421 7.58088C8.78929 7.20581 9 6.6971 9 6.16667C9 5.63623 8.78929 5.12753 8.41421 4.75245C8.03914 4.37738 7.53043 4.16667 7 4.16667C6.46957 4.16667 5.96086 4.37738 5.58579 4.75245C5.21071 5.12753 5 5.63623 5 6.16667Z" stroke="url(#paint0_linear_80_34)" stroke-width="1.3" stroke-linecap="round" stroke-linejoin="round"/>
<defs>
<linearGradient id="paint0_linear_80_34" x1="4.77586" y1="1.09091" x2="14.7562" y2="5.565" gradientUnits="userSpaceOnUse">
<stop stop-color="#0DA6C2"/>
<stop offset="1" stop-color="#0E39C6"/>
</linearGradient>
</defs>
</svg>
